<svg xmlns="http://www.w3.org/2000/svg" id="Capa_1" style="enable-background:new 0 0 60 60;" viewBox="0 0 60 60" x="0px" y="0px" xmlns:xlink="http://www.w3.org/1999/xlink" version="1.1" xmlns:xml="http://www.w3.org/XML/1998/namespace" xml:space="preserve">
<g>
	<path d="M 60 8 V 0 H 0 v 8 h 2 v 40 H 1 c -0.552 0 -1 0.447 -1 1 s 0.448 1 1 1 h 1 h 27 v 2 c 0 0.047 0.021 0.088 0.027 0.134 C 27.293 52.571 26 54.131 26 56 c 0 2.206 1.794 4 4 4 s 4 -1.794 4 -4 c 0 -1.869 -1.293 -3.429 -3.027 -3.866 C 30.979 52.088 31 52.047 31 52 v -2 h 27 h 1 c 0.552 0 1 -0.447 1 -1 s -0.448 -1 -1 -1 h -1 V 8 H 60 Z M 32 56 c 0 1.103 -0.897 2 -2 2 s -2 -0.897 -2 -2 s 0.897 -2 2 -2 S 32 54.897 32 56 Z M 56 48 H 4 V 8 h 52 V 48 Z" />
	<path d="M 50 41 H 35 c -0.552 0 -1 0.447 -1 1 s 0.448 1 1 1 h 15 c 0.552 0 1 -0.447 1 -1 S 50.552 41 50 41 Z" />
	<path d="M 10 36 h 10 c 0.552 0 1 -0.447 1 -1 s -0.448 -1 -1 -1 H 10 c -0.552 0 -1 0.447 -1 1 S 9.448 36 10 36 Z" />
	<path d="M 30 36 h 15 c 0.552 0 1 -0.447 1 -1 s -0.448 -1 -1 -1 H 30 c -0.552 0 -1 0.447 -1 1 S 29.448 36 30 36 Z" />
	<path d="M 24.29 34.29 C 24.11 34.479 24 34.729 24 35 c 0 0.26 0.11 0.52 0.29 0.71 C 24.48 35.89 24.74 36 25 36 c 0.26 0 0.52 -0.11 0.71 -0.29 C 25.89 35.52 26 35.26 26 35 s -0.11 -0.521 -0.29 -0.71 C 25.34 33.92 24.66 33.92 24.29 34.29 Z" />
	<path d="M 30 41 H 15 c -0.552 0 -1 0.447 -1 1 s 0.448 1 1 1 h 15 c 0.552 0 1 -0.447 1 -1 S 30.552 41 30 41 Z" />
	<path d="M 10 43 c 0.26 0 0.52 -0.11 0.71 -0.29 C 10.89 42.52 11 42.26 11 42 s -0.11 -0.521 -0.29 -0.7 c -0.37 -0.38 -1.04 -0.38 -1.42 -0.01 C 9.11 41.479 9 41.74 9 42 s 0.11 0.52 0.29 0.71 C 9.48 42.89 9.74 43 10 43 Z" />
	<path d="M 49.29 34.29 C 49.11 34.479 49 34.729 49 35 c 0 0.26 0.11 0.52 0.29 0.71 C 49.48 35.89 49.74 36 50 36 c 0.26 0 0.52 -0.11 0.71 -0.29 C 50.89 35.52 51 35.26 51 35 s -0.11 -0.521 -0.29 -0.71 C 50.34 33.92 49.67 33.92 49.29 34.29 Z" />
	<path d="M 50 20 H 35 c -0.552 0 -1 0.447 -1 1 s 0.448 1 1 1 h 15 c 0.552 0 1 -0.447 1 -1 S 50.552 20 50 20 Z" />
	<path d="M 50 27 H 40 c -0.552 0 -1 0.447 -1 1 s 0.448 1 1 1 h 10 c 0.552 0 1 -0.447 1 -1 S 50.552 27 50 27 Z" />
	<path d="M 30 29 h 2 c 0.552 0 1 -0.447 1 -1 s -0.448 -1 -1 -1 h -2 c -0.552 0 -1 0.447 -1 1 S 29.448 29 30 29 Z" />
	<path d="M 30 15 h 15 c 0.552 0 1 -0.447 1 -1 s -0.448 -1 -1 -1 H 30 c -0.552 0 -1 0.447 -1 1 S 29.448 15 30 15 Z" />
	<path d="M 50 15 c 0.26 0 0.52 -0.11 0.71 -0.29 C 50.9 14.52 51 14.26 51 14 s -0.1 -0.521 -0.29 -0.71 c -0.38 -0.37 -1.05 -0.37 -1.42 0 C 49.11 13.479 49 13.74 49 14 s 0.11 0.52 0.29 0.71 C 49.48 14.89 49.74 15 50 15 Z" />
	<path d="M 30.29 20.29 C 30.11 20.479 30 20.729 30 21 c 0 0.26 0.11 0.52 0.29 0.71 C 30.48 21.89 30.74 22 31 22 c 0.26 0 0.52 -0.11 0.71 -0.29 C 31.89 21.52 32 21.26 32 21 c 0 -0.271 -0.11 -0.521 -0.29 -0.71 C 31.33 19.92 30.67 19.92 30.29 20.29 Z" />
	<path d="M 35.29 27.29 C 35.11 27.479 35 27.74 35 28 s 0.11 0.52 0.29 0.71 C 35.48 28.89 35.74 29 36 29 c 0.26 0 0.52 -0.11 0.71 -0.29 C 36.89 28.52 37 28.26 37 28 s -0.11 -0.521 -0.29 -0.71 C 36.34 26.92 35.66 26.92 35.29 27.29 Z" />
	<rect x="9" y="13" width="16" height="16" />
</g>
<g>
</g>
<g>
</g>
<g>
</g>
<g>
</g>
<g>
</g>
<g>
</g>
<g>
</g>
<g>
</g>
<g>
</g>
<g>
</g>
<g>
</g>
<g>
</g>
<g>
</g>
<g>
</g>
<g>
</g>
</svg>